<svg height="482pt" viewBox="-15 0 482 482.59561" width="482pt" xmlns="http://www.w3.org/2000/svg"><path d="m443.078125 145.074219c5.941406 9.054687 3.425781 21.210937-5.621094 27.160156l-6.527343 4.292969v-.011719l-13.683594-20.828125-13.679688-20.820312 6.519532-4.292969c9.050781-5.945313 21.207031-3.429688 27.152343 5.621093zm0 0" fill="#e48e66"/><path d="m430.929688 176.515625v.011719l-48.140626 31.628906-45.480468 29.878906-119.5 78.519532-13.691406-20.828126 213.128906-140.039062zm0 0" fill="#e2d574"/><path d="m417.246094 155.6875-213.128906 140.039062-13.679688-20.832031 146.871094-96.5 45.480468-29.878906 20.777344-13.648437zm0 0" fill="#f8ec7d"/><path d="m280.128906 421.964844c1.707032-.578125 3.257813-1.542969 4.527344-2.820313l49.203125-49.199219c.953125-.960937 1.738281-2.078124 2.320313-3.300781.742187-1.566406 1.128906-3.28125 1.128906-5.019531v-123.589844l45.480468-29.878906v248.839844c-.003906 10.828125-8.785156 19.601562-19.609374 19.597656h-337.273438c-10.824219.003906-19.605469-8.769531-19.609375-19.597656v-407.859375c0-10.832031 8.78125-19.609375 19.609375-19.609375h135.351562c-1.332031 3.777344-2.011718 7.753906-2.011718 11.757812v17.652344h-64.707032v24.589844h-32.960937c-5.414063 0-9.800781 4.386718-9.800781 9.796875v319.472656c0 5.410156 4.386718 9.796875 9.800781 9.796875h214.757813c1.292968 0 2.570312-.210938 3.792968-.628906zm0 0" fill="#6fe3ff"/><path d="m382.789062 49.136719v99.378906l-45.480468 29.878906v-85.070312c0-5.410157-4.386719-9.796875-9.800782-9.796875h-32.960937v-24.589844h-64.710937v-17.652344c.003906-4.003906-.675782-7.980468-2.007813-11.757812h135.351563c10.828124 0 19.609374 8.777344 19.609374 19.609375zm0 0" fill="#6fe3ff"/><path d="m162.46875 323.09375 55.339844-6.539062 119.5-78.519532v123.589844c0 1.738281-.386719 3.453125-1.128906 5.019531l-1.222657-.390625h-35.21875c-10.832031 0-19.609375 8.78125-19.609375 19.613282v36.097656c-1.222656.417968-2.5.628906-3.792968.628906h-214.757813c-5.414063 0-9.800781-4.386719-9.800781-9.796875v-319.472656c0-5.410157 4.386718-9.796875 9.800781-9.796875h32.960937v22.46875h200.007813v-22.46875h32.960937c5.414063 0 9.800782 4.386718 9.800782 9.796875v85.070312l-146.871094 96.5zm0 0" fill="#e48e66"/><path d="m334.957031 366.253906 1.222657.390625c-.582032 1.222657-1.367188 2.339844-2.320313 3.300781l-49.203125 49.199219c-1.269531 1.277344-2.820312 2.242188-4.527344 2.820313v-36.097656c0-10.832032 8.777344-19.613282 19.609375-19.613282zm0 0" fill="#cc7350"/><path d="m227.828125 29.527344c1.332031 3.777344 2.011719 7.753906 2.007813 11.757812v17.652344h64.710937v47.058594h-200.007813v-47.058594h64.707032v-17.652344c.007812-17.1875 12.394531-31.875 29.335937-34.78125 16.941407-2.90625 33.515625 6.816406 39.246094 23.023438zm0 0" fill="#f8ec7d"/><path d="m204.117188 295.726562 13.691406 20.828126-55.339844 6.539062 27.96875-48.199219zm0 0" fill="#f8ec7d"/><g fill="#63316d"><path d="m268.9375 173.9375h25.609375c3.316406 0 6-2.6875 6-6 0-3.316406-2.683594-6-6-6h-25.609375c-3.3125 0-6 2.683594-6 6 0 3.3125 2.6875 6 6 6zm0 0"/><path d="m156.15625 173.9375h89.820312c3.316407 0 6-2.6875 6-6 0-3.316406-2.683593-6-6-6h-89.820312c-3.3125 0-6 2.683594-6 6 0 3.3125 2.6875 6 6 6zm0 0"/><path d="m94.539062 173.9375h38.199219c3.3125 0 6-2.6875 6-6 0-3.316406-2.6875-6-6-6h-38.199219c-3.316406 0-6 2.683594-6 6 0 3.3125 2.683594 6 6 6zm0 0"/><path d="m231.71875 214.804688h-106.390625c-3.3125 0-6 2.6875-6 6 0 3.316406 2.6875 6 6 6h106.390625c3.3125 0 6-2.683594 6-6 0-3.3125-2.6875-6-6-6zm0 0"/><path d="m94.539062 226.804688h11.140626c3.3125 0 6-2.683594 6-6 0-3.3125-2.6875-6-6-6h-11.140626c-3.316406 0-6 2.6875-6 6 0 3.316406 2.683594 6 6 6zm0 0"/><path d="m94.539062 282.964844h71.257813c3.316406 0 6-2.683594 6-6 0-3.3125-2.683594-6-6-6h-71.257813c-3.316406 0-6 2.6875-6 6 0 3.316406 2.683594 6 6 6zm0 0"/><path d="m123.347656 322.867188h-28.808594c-3.316406 0-6 2.683593-6 6 0 3.3125 2.683594 6 6 6h28.808594c3.3125 0 6-2.6875 6-6 0-3.316407-2.6875-6-6-6zm0 0"/><path d="m442.253906 132.902344c-7.761718-11.824219-23.644531-15.109375-35.464844-7.339844l-18 11.828125v-88.253906c-.015624-14.136719-11.472656-25.59375-25.609374-25.609375h-131.359376c-6.851562-14.375-21.355468-23.527344-37.277343-23.527344-15.925781 0-30.429688 9.152344-37.28125 23.527344h-131.355469c-14.136719.015625-25.59375 11.472656-25.609375 25.609375v407.859375c.019531 14.132812 11.476563 25.585937 25.609375 25.597656h337.273438c14.132812-.011719 25.589843-11.464844 25.609374-25.597656v-245.601563l51.964844-34.144531c11.800782-7.78125 15.082032-23.644531 7.335938-35.46875zm-62.808594 70.269531-.019531.015625-45.40625 29.835938c-.035156.019531-.070312.042968-.101562.0625l-114.390625 75.160156-7.101563-10.800782 203.097657-133.449218 7.101562 10.804687zm-48.136718 157.082031h-31.570313c-14.136719.015625-25.59375 11.472656-25.609375 25.613282v30.726562h-212.550781c-2.097656 0-3.800781-1.699219-3.800781-3.796875v-319.472656c.003906-2.097657 1.703125-3.796875 3.800781-3.796875h26.960937v16.46875c0 3.3125 2.683594 6 6 6h200.007813c3.316406 0 6-2.6875 6-6v-16.46875h26.960937c2.097657 0 3.796876 1.699218 3.800782 3.796875v81.835937l-144.164063 94.71875c-.097656.0625-.183593.132813-.273437.203125-.054688.039063-.109375.074219-.160156.117188-.371094.292969-.703126.628906-.992188 1-.03125.039062-.0625.082031-.09375.125-.117188.15625-.222656.316406-.324219.480469-.015625.027343-.035156.054687-.054687.082031l-27.257813 46.976562-8.101562 5.320313c-1.804688 1.171875-2.84375 3.222656-2.722657 5.371094.121094 2.148437 1.382813 4.066406 3.308594 5.027343 1.921875.964844 4.214844.820313 6.007813-.371093l8.09375-5.320313 53.933593-6.375c.023438 0 .046876-.007813.066407-.011719.121093-.015625.238281-.042968.359375-.066406.148437-.027344.300781-.058594.445312-.097656.113282-.035156.226563-.070313.339844-.109375.148438-.054688.300781-.105469.445312-.167969.097657-.046875.207032-.09375.308594-.144531.15625-.078125.300782-.164063.453125-.253907.054688-.035156.117188-.058593.171875-.097656l110.199219-72.410156zm-8.246094 12-36.933594 36.941406v-23.328124c.007813-7.515626 6.097656-13.601563 13.609375-13.613282zm-132.308594-85.949218 8.324219 12.671874c.007813.015626.015625.027344.027344.042969.007812.015625.015625.023438.023437.03125l8.332032 12.683594-33.78125 3.996094zm15.085938 1.109374-7.09375-10.800781 141.855468-93.207031 45.496094-29.886719c.023438-.015625.050782-.03125.074219-.050781l15.675781-10.296875 7.09375 10.796875zm170.949218-238.277343v96.140625l-33.480468 22v-73.953125c-.011719-8.71875-7.078125-15.789063-15.800782-15.796875h-26.960937v-18.589844c0-3.316406-2.683594-6-6-6h-58.710937v-11.652344c0-1.925781-.136719-3.851562-.40625-5.757812h127.75c7.511718.007812 13.597656 6.09375 13.609374 13.609375zm-182.25-37.140625c12.414063.007812 23.476563 7.828125 27.628907 19.527344 1.109375 3.132812 1.671875 6.433593 1.667969 9.757812v17.65625c0 3.3125 2.6875 6 6 6h58.710937v35.058594h-188.007813v-35.058594h58.707032c3.316406 0 6-2.6875 6-6v-17.652344c-.003906-7.769531 3.078125-15.222656 8.574218-20.71875 5.492188-5.492187 12.949219-8.578125 20.71875-8.570312zm182.25 445c-.011718 7.511718-6.101562 13.59375-13.609374 13.597656h-337.273438c-7.507812-.003906-13.597656-6.085938-13.609375-13.597656v-407.859375c.007813-7.515625 6.097656-13.601563 13.609375-13.609375h127.75c-.269531 1.90625-.40625 3.832031-.410156 5.757812v11.652344h-58.707032c-3.316406 0-6 2.683594-6 6v18.589844h-26.960937c-8.722656.007812-15.789063 7.078125-15.800781 15.796875v319.472656c.011718 8.722656 7.078125 15.789063 15.800781 15.796875h214.757813c.796874-.003906 1.589843-.0625 2.378906-.171875 2.183594.542969 4.484375-.195313 5.949218-1.902344 1.558594-.824219 2.988282-1.878906 4.238282-3.125l49.222656-49.226562c3.3125-3.332031 5.175781-7.835938 5.183594-12.539063v-120.351562l33.480468-22zm57.375-289.773438-1.511718.992188-10.355469-15.769532c-.011719-.019531-.019531-.035156-.03125-.054687s-.027344-.035156-.039063-.050781l-10.351562-15.757813 1.511719-.992187c6.28125-4.128906 14.71875-2.382813 18.84375 3.898437l5.835937 8.875c4.117188 6.289063 2.371094 14.722657-3.902344 18.859375zm0 0"/></g></svg>